<svg class="rich-terminal" viewBox="0 0 1421 952.8" xmlns="http://www.w3.org/2000/svg">
    <!-- Generated with Rich https://www.textualize.io -->
    <style>

    @font-face {
        font-family: "Fira Code";
        src: local("FiraCode-Regular"),
                url("https://cdnjs.cloudflare.com/ajax/libs/firacode/6.2.0/woff2/FiraCode-Regular.woff2") format("woff2"),
                url("https://cdnjs.cloudflare.com/ajax/libs/firacode/6.2.0/woff/FiraCode-Regular.woff") format("woff");
        font-style: normal;
        font-weight: 400;
    }
    @font-face {
        font-family: "Fira Code";
        src: local("FiraCode-Bold"),
                url("https://cdnjs.cloudflare.com/ajax/libs/firacode/6.2.0/woff2/FiraCode-Bold.woff2") format("woff2"),
                url("https://cdnjs.cloudflare.com/ajax/libs/firacode/6.2.0/woff/FiraCode-Bold.woff") format("woff");
        font-style: bold;
        font-weight: 700;
    }

    .terminal-866146440-matrix {
        font-family: Fira Code, monospace;
        font-size: 20px;
        line-height: 24.4px;
        font-variant-east-asian: full-width;
    }

    .terminal-866146440-title {
        font-size: 18px;
        font-weight: bold;
        font-family: arial;
    }

    .terminal-866146440-r1 { fill: #c5c8c6 }
.terminal-866146440-r2 { fill: #e0e0e0 }
.terminal-866146440-r3 { fill: #a5aaae }
.terminal-866146440-r4 { fill: #c7c9cb }
.terminal-866146440-r5 { fill: #7f7f7f }
.terminal-866146440-r6 { fill: #313131 }
.terminal-866146440-r7 { fill: #fea62b }
.terminal-866146440-r8 { fill: #e5e7e8;font-weight: bold }
.terminal-866146440-r9 { fill: #98e024 }
.terminal-866146440-r10 { fill: #fd971f }
.terminal-866146440-r11 { fill: #211505;font-weight: bold }
.terminal-866146440-r12 { fill: #adb3b8 }
.terminal-866146440-r13 { fill: #ffa62b;font-weight: bold }
.terminal-866146440-r14 { fill: #495259 }
    </style>

    <defs>
    <clipPath id="terminal-866146440-clip-terminal">
      <rect x="0" y="0" width="1402.0" height="901.8" />
    </clipPath>
    <clipPath id="terminal-866146440-line-0">
    <rect x="0" y="1.5" width="1403" height="24.65"/>
            </clipPath>
<clipPath id="terminal-866146440-line-1">
    <rect x="0" y="25.9" width="1403" height="24.65"/>
            </clipPath>
<clipPath id="terminal-866146440-line-2">
    <rect x="0" y="50.3" width="1403" height="24.65"/>
            </clipPath>
<clipPath id="terminal-866146440-line-3">
    <rect x="0" y="74.7" width="1403" height="24.65"/>
            </clipPath>
<clipPath id="terminal-866146440-line-4">
    <rect x="0" y="99.1" width="1403" height="24.65"/>
            </clipPath>
<clipPath id="terminal-866146440-line-5">
    <rect x="0" y="123.5" width="1403" height="24.65"/>
            </clipPath>
<clipPath id="terminal-866146440-line-6">
    <rect x="0" y="147.9" width="1403" height="24.65"/>
            </clipPath>
<clipPath id="terminal-866146440-line-7">
    <rect x="0" y="172.3" width="1403" height="24.65"/>
            </clipPath>
<clipPath id="terminal-866146440-line-8">
    <rect x="0" y="196.7" width="1403" height="24.65"/>
            </clipPath>
<clipPath id="terminal-866146440-line-9">
    <rect x="0" y="221.1" width="1403" height="24.65"/>
            </clipPath>
<clipPath id="terminal-866146440-line-10">
    <rect x="0" y="245.5" width="1403" height="24.65"/>
            </clipPath>
<clipPath id="terminal-866146440-line-11">
    <rect x="0" y="269.9" width="1403" height="24.65"/>
            </clipPath>
<clipPath id="terminal-866146440-line-12">
    <rect x="0" y="294.3" width="1403" height="24.65"/>
            </clipPath>
<clipPath id="terminal-866146440-line-13">
    <rect x="0" y="318.7" width="1403" height="24.65"/>
            </clipPath>
<clipPath id="terminal-866146440-line-14">
    <rect x="0" y="343.1" width="1403" height="24.65"/>
            </clipPath>
<clipPath id="terminal-866146440-line-15">
    <rect x="0" y="367.5" width="1403" height="24.65"/>
            </clipPath>
<clipPath id="terminal-866146440-line-16">
    <rect x="0" y="391.9" width="1403" height="24.65"/>
            </clipPath>
<clipPath id="terminal-866146440-line-17">
    <rect x="0" y="416.3" width="1403" height="24.65"/>
            </clipPath>
<clipPath id="terminal-866146440-line-18">
    <rect x="0" y="440.7" width="1403" height="24.65"/>
            </clipPath>
<clipPath id="terminal-866146440-line-19">
    <rect x="0" y="465.1" width="1403" height="24.65"/>
            </clipPath>
<clipPath id="terminal-866146440-line-20">
    <rect x="0" y="489.5" width="1403" height="24.65"/>
            </clipPath>
<clipPath id="terminal-866146440-line-21">
    <rect x="0" y="513.9" width="1403" height="24.65"/>
            </clipPath>
<clipPath id="terminal-866146440-line-22">
    <rect x="0" y="538.3" width="1403" height="24.65"/>
            </clipPath>
<clipPath id="terminal-866146440-line-23">
    <rect x="0" y="562.7" width="1403" height="24.65"/>
            </clipPath>
<clipPath id="terminal-866146440-line-24">
    <rect x="0" y="587.1" width="1403" height="24.65"/>
            </clipPath>
<clipPath id="terminal-866146440-line-25">
    <rect x="0" y="611.5" width="1403" height="24.65"/>
            </clipPath>
<clipPath id="terminal-866146440-line-26">
    <rect x="0" y="635.9" width="1403" height="24.65"/>
            </clipPath>
<clipPath id="terminal-866146440-line-27">
    <rect x="0" y="660.3" width="1403" height="24.65"/>
            </clipPath>
<clipPath id="terminal-866146440-line-28">
    <rect x="0" y="684.7" width="1403" height="24.65"/>
            </clipPath>
<clipPath id="terminal-866146440-line-29">
    <rect x="0" y="709.1" width="1403" height="24.65"/>
            </clipPath>
<clipPath id="terminal-866146440-line-30">
    <rect x="0" y="733.5" width="1403" height="24.65"/>
            </clipPath>
<clipPath id="terminal-866146440-line-31">
    <rect x="0" y="757.9" width="1403" height="24.65"/>
            </clipPath>
<clipPath id="terminal-866146440-line-32">
    <rect x="0" y="782.3" width="1403" height="24.65"/>
            </clipPath>
<clipPath id="terminal-866146440-line-33">
    <rect x="0" y="806.7" width="1403" height="24.65"/>
            </clipPath>
<clipPath id="terminal-866146440-line-34">
    <rect x="0" y="831.1" width="1403" height="24.65"/>
            </clipPath>
<clipPath id="terminal-866146440-line-35">
    <rect x="0" y="855.5" width="1403" height="24.65"/>
            </clipPath>
    </defs>

    <rect fill="#292929" stroke="rgba(255,255,255,0.35)" stroke-width="1" x="1" y="1" width="1419" height="950.8" rx="8"/><text class="terminal-866146440-title" fill="#c5c8c6" text-anchor="middle" x="709" y="27">SlurmTerm</text>
            <g transform="translate(26,22)">
            <circle cx="0" cy="0" r="7" fill="#ff5f57"/>
            <circle cx="22" cy="0" r="7" fill="#febc2e"/>
            <circle cx="44" cy="0" r="7" fill="#28c840"/>
            </g>
        
    <g transform="translate(9, 41)" clip-path="url(#terminal-866146440-clip-terminal)">
    <rect fill="#33424e" x="0" y="1.5" width="12.2" height="24.65" shape-rendering="crispEdges"/><rect fill="#33424e" x="12.2" y="1.5" width="12.2" height="24.65" shape-rendering="crispEdges"/><rect fill="#33424e" x="24.4" y="1.5" width="61" height="24.65" shape-rendering="crispEdges"/><rect fill="#33424e" x="85.4" y="1.5" width="12.2" height="24.65" shape-rendering="crispEdges"/><rect fill="#33424e" x="97.6" y="1.5" width="390.4" height="24.65" shape-rendering="crispEdges"/><rect fill="#33424e" x="488" y="1.5" width="109.8" height="24.65" shape-rendering="crispEdges"/><rect fill="#33424e" x="597.8" y="1.5" width="36.6" height="24.65" shape-rendering="crispEdges"/><rect fill="#33424e" x="634.4" y="1.5" width="244" height="24.65" shape-rendering="crispEdges"/><rect fill="#33424e" x="878.4" y="1.5" width="402.6" height="24.65" shape-rendering="crispEdges"/><rect fill="#3a4854" x="1281" y="1.5" width="12.2" height="24.65" shape-rendering="crispEdges"/><rect fill="#3a4854" x="1293.2" y="1.5" width="97.6" height="24.65" shape-rendering="crispEdges"/><rect fill="#3a4854" x="1390.8" y="1.5" width="12.2" height="24.65" shape-rendering="crispEdges"/><rect fill="#1e1e1e" x="0" y="25.9" width="12.2" height="24.65" shape-rendering="crispEdges"/><rect fill="#1e1e1e" x="12.2" y="25.9" width="85.4" height="24.65" shape-rendering="crispEdges"/><rect fill="#1e1e1e" x="97.6" y="25.9" width="12.2" height="24.65" shape-rendering="crispEdges"/><rect fill="#1e1e1e" x="109.8" y="25.9" width="12.2" height="24.65" shape-rendering="crispEdges"/><rect fill="#1e1e1e" x="122" y="25.9" width="97.6" height="24.65" shape-rendering="crispEdges"/><rect fill="#1e1e1e" x="219.6" y="25.9" width="12.2" height="24.65" shape-rendering="crispEdges"/><rect fill="#1e1e1e" x="231.8" y="25.9" width="12.2" height="24.65" shape-rendering="crispEdges"/><rect fill="#1e1e1e" x="244" y="25.9" width="97.6" height="24.65" shape-rendering="crispEdges"/><rect fill="#1e1e1e" x="341.6" y="25.9" width="12.2" height="24.65" shape-rendering="crispEdges"/><rect fill="#1e1e1e" x="353.8" y="25.9" width="12.2" height="24.65" shape-rendering="crispEdges"/><rect fill="#1e1e1e" x="366" y="25.9" width="85.4" height="24.65" shape-rendering="crispEdges"/><rect fill="#1e1e1e" x="451.4" y="25.9" width="12.2" height="24.65" shape-rendering="crispEdges"/><rect fill="#1e1e1e" x="463.6" y="25.9" width="12.2" height="24.65" shape-rendering="crispEdges"/><rect fill="#1e1e1e" x="475.8" y="25.9" width="109.8" height="24.65" shape-rendering="crispEdges"/><rect fill="#1e1e1e" x="585.6" y="25.9" width="12.2" height="24.65" shape-rendering="crispEdges"/><rect fill="#1e1e1e" x="597.8" y="25.9" width="805.2" height="24.65" shape-rendering="crispEdges"/><rect fill="#1e1e1e" x="0" y="50.3" width="12.2" height="24.65" shape-rendering="crispEdges"/><rect fill="#1e1e1e" x="12.2" y="50.3" width="85.4" height="24.65" shape-rendering="crispEdges"/><rect fill="#1e1e1e" x="97.6" y="50.3" width="12.2" height="24.65" shape-rendering="crispEdges"/><rect fill="#1e1e1e" x="109.8" y="50.3" width="1293.2" height="24.65" shape-rendering="crispEdges"/><rect fill="#3b4955" x="0" y="74.7" width="97.6" height="24.65" shape-rendering="crispEdges"/><rect fill="#3b4955" x="97.6" y="74.7" width="207.4" height="24.65" shape-rendering="crispEdges"/><rect fill="#3b4955" x="305" y="74.7" width="134.2" height="24.65" shape-rendering="crispEdges"/><rect fill="#3b4955" x="439.2" y="74.7" width="134.2" height="24.65" shape-rendering="crispEdges"/><rect fill="#3b4955" x="573.4" y="74.7" width="122" height="24.65" shape-rendering="crispEdges"/><rect fill="#3b4955" x="695.4" y="74.7" width="85.4" height="24.65" shape-rendering="crispEdges"/><rect fill="#3b4955" x="780.8" y="74.7" width="146.4" height="24.65" shape-rendering="crispEdges"/><rect fill="#3b4955" x="927.2" y="74.7" width="475.8" height="24.65" shape-rendering="crispEdges"/><rect fill="#272727" x="0" y="99.1" width="97.6" height="24.65" shape-rendering="crispEdges"/><rect fill="#272727" x="97.6" y="99.1" width="207.4" height="24.65" shape-rendering="crispEdges"/><rect fill="#272727" x="305" y="99.1" width="134.2" height="24.65" shape-rendering="crispEdges"/><rect fill="#272727" x="439.2" y="99.1" width="12.2" height="24.65" shape-rendering="crispEdges"/><rect fill="#272727" x="451.4" y="99.1" width="109.8" height="24.65" shape-rendering="crispEdges"/><rect fill="#272727" x="561.2" y="99.1" width="12.2" height="24.65" shape-rendering="crispEdges"/><rect fill="#272727" x="573.4" y="99.1" width="122" height="24.65" shape-rendering="crispEdges"/><rect fill="#272727" x="695.4" y="99.1" width="85.4" height="24.65" shape-rendering="crispEdges"/><rect fill="#272727" x="780.8" y="99.1" width="146.4" height="24.65" shape-rendering="crispEdges"/><rect fill="#272727" x="927.2" y="99.1" width="475.8" height="24.65" shape-rendering="crispEdges"/><rect fill="#272727" x="0" y="123.5" width="97.6" height="24.65" shape-rendering="crispEdges"/><rect fill="#272727" x="97.6" y="123.5" width="207.4" height="24.65" shape-rendering="crispEdges"/><rect fill="#272727" x="305" y="123.5" width="134.2" height="24.65" shape-rendering="crispEdges"/><rect fill="#272727" x="439.2" y="123.5" width="12.2" height="24.65" shape-rendering="crispEdges"/><rect fill="#272727" x="451.4" y="123.5" width="85.4" height="24.65" shape-rendering="crispEdges"/><rect fill="#272727" x="536.8" y="123.5" width="36.6" height="24.65" shape-rendering="crispEdges"/><rect fill="#272727" x="573.4" y="123.5" width="122" height="24.65" shape-rendering="crispEdges"/><rect fill="#272727" x="695.4" y="123.5" width="85.4" height="24.65" shape-rendering="crispEdges"/><rect fill="#272727" x="780.8" y="123.5" width="146.4" height="24.65" shape-rendering="crispEdges"/><rect fill="#272727" x="927.2" y="123.5" width="475.8" height="24.65" shape-rendering="crispEdges"/><rect fill="#272727" x="0" y="147.9" width="97.6" height="24.65" shape-rendering="crispEdges"/><rect fill="#272727" x="97.6" y="147.9" width="207.4" height="24.65" shape-rendering="crispEdges"/><rect fill="#272727" x="305" y="147.9" width="134.2" height="24.65" shape-rendering="crispEdges"/><rect fill="#272727" x="439.2" y="147.9" width="12.2" height="24.65" shape-rendering="crispEdges"/><rect fill="#272727" x="451.4" y="147.9" width="85.4" height="24.65" shape-rendering="crispEdges"/><rect fill="#272727" x="536.8" y="147.9" width="36.6" height="24.65" shape-rendering="crispEdges"/><rect fill="#272727" x="573.4" y="147.9" width="122" height="24.65" shape-rendering="crispEdges"/><rect fill="#272727" x="695.4" y="147.9" width="85.4" height="24.65" shape-rendering="crispEdges"/><rect fill="#272727" x="780.8" y="147.9" width="146.4" height="24.65" shape-rendering="crispEdges"/><rect fill="#272727" x="927.2" y="147.9" width="475.8" height="24.65" shape-rendering="crispEdges"/><rect fill="#272727" x="0" y="172.3" width="97.6" height="24.65" shape-rendering="crispEdges"/><rect fill="#272727" x="97.6" y="172.3" width="207.4" height="24.65" shape-rendering="crispEdges"/><rect fill="#272727" x="305" y="172.3" width="134.2" height="24.65" shape-rendering="crispEdges"/><rect fill="#272727" x="439.2" y="172.3" width="12.2" height="24.65" shape-rendering="crispEdges"/><rect fill="#272727" x="451.4" y="172.3" width="85.4" height="24.65" shape-rendering="crispEdges"/><rect fill="#272727" x="536.8" y="172.3" width="36.6" height="24.65" shape-rendering="crispEdges"/><rect fill="#272727" x="573.4" y="172.3" width="122" height="24.65" shape-rendering="crispEdges"/><rect fill="#272727" x="695.4" y="172.3" width="85.4" height="24.65" shape-rendering="crispEdges"/><rect fill="#272727" x="780.8" y="172.3" width="146.4" height="24.65" shape-rendering="crispEdges"/><rect fill="#272727" x="927.2" y="172.3" width="475.8" height="24.65" shape-rendering="crispEdges"/><rect fill="#272727" x="0" y="196.7" width="97.6" height="24.65" shape-rendering="crispEdges"/><rect fill="#272727" x="97.6" y="196.7" width="207.4" height="24.65" shape-rendering="crispEdges"/><rect fill="#272727" x="305" y="196.7" width="134.2" height="24.65" shape-rendering="crispEdges"/><rect fill="#272727" x="439.2" y="196.7" width="12.2" height="24.65" shape-rendering="crispEdges"/><rect fill="#272727" x="451.4" y="196.7" width="85.4" height="24.65" shape-rendering="crispEdges"/><rect fill="#272727" x="536.8" y="196.7" width="36.6" height="24.65" shape-rendering="crispEdges"/><rect fill="#272727" x="573.4" y="196.7" width="122" height="24.65" shape-rendering="crispEdges"/><rect fill="#272727" x="695.4" y="196.7" width="85.4" height="24.65" shape-rendering="crispEdges"/><rect fill="#272727" x="780.8" y="196.7" width="146.4" height="24.65" shape-rendering="crispEdges"/><rect fill="#272727" x="927.2" y="196.7" width="475.8" height="24.65" shape-rendering="crispEdges"/><rect fill="#fea62b" x="0" y="221.1" width="97.6" height="24.65" shape-rendering="crispEdges"/><rect fill="#fea62b" x="97.6" y="221.1" width="207.4" height="24.65" shape-rendering="crispEdges"/><rect fill="#fea62b" x="305" y="221.1" width="134.2" height="24.65" shape-rendering="crispEdges"/><rect fill="#fea62b" x="439.2" y="221.1" width="134.2" height="24.65" shape-rendering="crispEdges"/><rect fill="#fea62b" x="573.4" y="221.1" width="122" height="24.65" shape-rendering="crispEdges"/><rect fill="#fea62b" x="695.4" y="221.1" width="85.4" height="24.65" shape-rendering="crispEdges"/><rect fill="#fea62b" x="780.8" y="221.1" width="146.4" height="24.65" shape-rendering="crispEdges"/><rect fill="#fea62b" x="927.2" y="221.1" width="475.8" height="24.65" shape-rendering="crispEdges"/><rect fill="#272727" x="0" y="245.5" width="97.6" height="24.65" shape-rendering="crispEdges"/><rect fill="#272727" x="97.6" y="245.5" width="207.4" height="24.65" shape-rendering="crispEdges"/><rect fill="#272727" x="305" y="245.5" width="134.2" height="24.65" shape-rendering="crispEdges"/><rect fill="#272727" x="439.2" y="245.5" width="12.2" height="24.65" shape-rendering="crispEdges"/><rect fill="#272727" x="451.4" y="245.5" width="85.4" height="24.65" shape-rendering="crispEdges"/><rect fill="#272727" x="536.8" y="245.5" width="36.6" height="24.65" shape-rendering="crispEdges"/><rect fill="#272727" x="573.4" y="245.5" width="122" height="24.65" shape-rendering="crispEdges"/><rect fill="#272727" x="695.4" y="245.5" width="85.4" height="24.65" shape-rendering="crispEdges"/><rect fill="#272727" x="780.8" y="245.5" width="146.4" height="24.65" shape-rendering="crispEdges"/><rect fill="#272727" x="927.2" y="245.5" width="475.8" height="24.65" shape-rendering="crispEdges"/><rect fill="#272727" x="0" y="269.9" width="97.6" height="24.65" shape-rendering="crispEdges"/><rect fill="#272727" x="97.6" y="269.9" width="207.4" height="24.65" shape-rendering="crispEdges"/><rect fill="#272727" x="305" y="269.9" width="134.2" height="24.65" shape-rendering="crispEdges"/><rect fill="#272727" x="439.2" y="269.9" width="12.2" height="24.65" shape-rendering="crispEdges"/><rect fill="#272727" x="451.4" y="269.9" width="85.4" height="24.65" shape-rendering="crispEdges"/><rect fill="#272727" x="536.8" y="269.9" width="36.6" height="24.65" shape-rendering="crispEdges"/><rect fill="#272727" x="573.4" y="269.9" width="122" height="24.65" shape-rendering="crispEdges"/><rect fill="#272727" x="695.4" y="269.9" width="85.4" height="24.65" shape-rendering="crispEdges"/><rect fill="#272727" x="780.8" y="269.9" width="146.4" height="24.65" shape-rendering="crispEdges"/><rect fill="#272727" x="927.2" y="269.9" width="475.8" height="24.65" shape-rendering="crispEdges"/><rect fill="#272727" x="0" y="294.3" width="1403" height="24.65" shape-rendering="crispEdges"/><rect fill="#272727" x="0" y="318.7" width="1403" height="24.65" shape-rendering="crispEdges"/><rect fill="#272727" x="0" y="343.1" width="1403" height="24.65" shape-rendering="crispEdges"/><rect fill="#272727" x="0" y="367.5" width="1403" height="24.65" shape-rendering="crispEdges"/><rect fill="#272727" x="0" y="391.9" width="1403" height="24.65" shape-rendering="crispEdges"/><rect fill="#272727" x="0" y="416.3" width="1403" height="24.65" shape-rendering="crispEdges"/><rect fill="#272727" x="0" y="440.7" width="1403" height="24.65" shape-rendering="crispEdges"/><rect fill="#272727" x="0" y="465.1" width="1403" height="24.65" shape-rendering="crispEdges"/><rect fill="#272727" x="0" y="489.5" width="1403" height="24.65" shape-rendering="crispEdges"/><rect fill="#272727" x="0" y="513.9" width="1403" height="24.65" shape-rendering="crispEdges"/><rect fill="#272727" x="0" y="538.3" width="1403" height="24.65" shape-rendering="crispEdges"/><rect fill="#272727" x="0" y="562.7" width="1403" height="24.65" shape-rendering="crispEdges"/><rect fill="#272727" x="0" y="587.1" width="1403" height="24.65" shape-rendering="crispEdges"/><rect fill="#272727" x="0" y="611.5" width="1403" height="24.65" shape-rendering="crispEdges"/><rect fill="#272727" x="0" y="635.9" width="1403" height="24.65" shape-rendering="crispEdges"/><rect fill="#272727" x="0" y="660.3" width="1403" height="24.65" shape-rendering="crispEdges"/><rect fill="#272727" x="0" y="684.7" width="1403" height="24.65" shape-rendering="crispEdges"/><rect fill="#272727" x="0" y="709.1" width="1403" height="24.65" shape-rendering="crispEdges"/><rect fill="#272727" x="0" y="733.5" width="1403" height="24.65" shape-rendering="crispEdges"/><rect fill="#272727" x="0" y="757.9" width="1403" height="24.65" shape-rendering="crispEdges"/><rect fill="#272727" x="0" y="782.3" width="1403" height="24.65" shape-rendering="crispEdges"/><rect fill="#272727" x="0" y="806.7" width="1403" height="24.65" shape-rendering="crispEdges"/><rect fill="#272727" x="0" y="831.1" width="1403" height="24.65" shape-rendering="crispEdges"/><rect fill="#33424e" x="0" y="855.5" width="24.4" height="24.65" shape-rendering="crispEdges"/><rect fill="#33424e" x="24.4" y="855.5" width="158.6" height="24.65" shape-rendering="crispEdges"/><rect fill="#33424e" x="183" y="855.5" width="1195.6" height="24.65" shape-rendering="crispEdges"/><rect fill="#33424e" x="1378.6" y="855.5" width="24.4" height="24.65" shape-rendering="crispEdges"/><rect fill="#242f38" x="0" y="879.9" width="36.6" height="24.65" shape-rendering="crispEdges"/><rect fill="#242f38" x="36.6" y="879.9" width="109.8" height="24.65" shape-rendering="crispEdges"/><rect fill="#242f38" x="146.4" y="879.9" width="36.6" height="24.65" shape-rendering="crispEdges"/><rect fill="#242f38" x="183" y="879.9" width="109.8" height="24.65" shape-rendering="crispEdges"/><rect fill="#242f38" x="292.8" y="879.9" width="36.6" height="24.65" shape-rendering="crispEdges"/><rect fill="#242f38" x="329.4" y="879.9" width="146.4" height="24.65" shape-rendering="crispEdges"/><rect fill="#242f38" x="475.8" y="879.9" width="36.6" height="24.65" shape-rendering="crispEdges"/><rect fill="#242f38" x="512.4" y="879.9" width="97.6" height="24.65" shape-rendering="crispEdges"/><rect fill="#242f38" x="610" y="879.9" width="36.6" height="24.65" shape-rendering="crispEdges"/><rect fill="#242f38" x="646.6" y="879.9" width="97.6" height="24.65" shape-rendering="crispEdges"/><rect fill="#242f38" x="744.2" y="879.9" width="36.6" height="24.65" shape-rendering="crispEdges"/><rect fill="#242f38" x="780.8" y="879.9" width="61" height="24.65" shape-rendering="crispEdges"/><rect fill="#242f38" x="841.8" y="879.9" width="36.6" height="24.65" shape-rendering="crispEdges"/><rect fill="#242f38" x="878.4" y="879.9" width="97.6" height="24.65" shape-rendering="crispEdges"/><rect fill="#242f38" x="976" y="879.9" width="36.6" height="24.65" shape-rendering="crispEdges"/><rect fill="#242f38" x="1012.6" y="879.9" width="109.8" height="24.65" shape-rendering="crispEdges"/><rect fill="#242f38" x="1122.4" y="879.9" width="36.6" height="24.65" shape-rendering="crispEdges"/><rect fill="#242f38" x="1159" y="879.9" width="97.6" height="24.65" shape-rendering="crispEdges"/><rect fill="#242f38" x="1256.6" y="879.9" width="12.2" height="24.65" shape-rendering="crispEdges"/><rect fill="#242f38" x="1268.8" y="879.9" width="24.4" height="24.65" shape-rendering="crispEdges"/><rect fill="#242f38" x="1293.2" y="879.9" width="97.6" height="24.65" shape-rendering="crispEdges"/><rect fill="#242f38" x="1390.8" y="879.9" width="12.2" height="24.65" shape-rendering="crispEdges"/>
    <g class="terminal-866146440-matrix">
    <text class="terminal-866146440-r2" x="12.2" y="20" textLength="12.2" clip-path="url(#terminal-866146440-line-0)">⭘</text><text class="terminal-866146440-r2" x="488" y="20" textLength="109.8" clip-path="url(#terminal-866146440-line-0)">SlurmTerm</text><text class="terminal-866146440-r3" x="597.8" y="20" textLength="36.6" clip-path="url(#terminal-866146440-line-0)">&#160;—&#160;</text><text class="terminal-866146440-r3" x="634.4" y="20" textLength="244" clip-path="url(#terminal-866146440-line-0)">demo-cluster&#160;•&#160;matte</text><text class="terminal-866146440-r4" x="1293.2" y="20" textLength="97.6" clip-path="url(#terminal-866146440-line-0)">10:13:38</text><text class="terminal-866146440-r1" x="1403" y="20" textLength="12.2" clip-path="url(#terminal-866146440-line-0)">
</text><text class="terminal-866146440-r2" x="12.2" y="44.4" textLength="85.4" clip-path="url(#terminal-866146440-line-1)">Monitor</text><text class="terminal-866146440-r5" x="122" y="44.4" textLength="97.6" clip-path="url(#terminal-866146440-line-1)">Composer</text><text class="terminal-866146440-r5" x="244" y="44.4" textLength="97.6" clip-path="url(#terminal-866146440-line-1)">Hardware</text><text class="terminal-866146440-r5" x="366" y="44.4" textLength="85.4" clip-path="url(#terminal-866146440-line-1)">History</text><text class="terminal-866146440-r5" x="475.8" y="44.4" textLength="109.8" clip-path="url(#terminal-866146440-line-1)">Inspector</text><text class="terminal-866146440-r1" x="1403" y="44.4" textLength="12.2" clip-path="url(#terminal-866146440-line-1)">
</text><text class="terminal-866146440-r6" x="0" y="68.8" textLength="12.2" clip-path="url(#terminal-866146440-line-2)">╸</text><text class="terminal-866146440-r7" x="12.2" y="68.8" textLength="85.4" clip-path="url(#terminal-866146440-line-2)">━━━━━━━</text><text class="terminal-866146440-r6" x="97.6" y="68.8" textLength="12.2" clip-path="url(#terminal-866146440-line-2)">╺</text><text class="terminal-866146440-r6" x="109.8" y="68.8" textLength="1293.2" clip-path="url(#terminal-866146440-line-2)">━━━━━━━━━━━━━━━━━━━━━━━━━━━━━━━━━━━━━━━━━━━━━━━━━━━━━━━━━━━━━━━━━━━━━━━━━━━━━━━━━━━━━━━━━━━━━━━━━━━━━━━━━━</text><text class="terminal-866146440-r1" x="1403" y="68.8" textLength="12.2" clip-path="url(#terminal-866146440-line-2)">
</text><text class="terminal-866146440-r8" x="0" y="93.2" textLength="97.6" clip-path="url(#terminal-866146440-line-3)">&#160;JobID&#160;&#160;</text><text class="terminal-866146440-r8" x="97.6" y="93.2" textLength="207.4" clip-path="url(#terminal-866146440-line-3)">&#160;Name&#160;&#160;&#160;&#160;&#160;&#160;&#160;&#160;&#160;&#160;&#160;&#160;</text><text class="terminal-866146440-r8" x="305" y="93.2" textLength="134.2" clip-path="url(#terminal-866146440-line-3)">&#160;Partition&#160;</text><text class="terminal-866146440-r8" x="439.2" y="93.2" textLength="134.2" clip-path="url(#terminal-866146440-line-3)">&#160;State&#160;&#160;&#160;&#160;&#160;</text><text class="terminal-866146440-r8" x="573.4" y="93.2" textLength="122" clip-path="url(#terminal-866146440-line-3)">&#160;Time&#160;&#160;&#160;&#160;&#160;</text><text class="terminal-866146440-r8" x="695.4" y="93.2" textLength="85.4" clip-path="url(#terminal-866146440-line-3)">&#160;Nodes&#160;</text><text class="terminal-866146440-r8" x="780.8" y="93.2" textLength="146.4" clip-path="url(#terminal-866146440-line-3)">&#160;Reason&#160;&#160;&#160;&#160;&#160;</text><text class="terminal-866146440-r1" x="1403" y="93.2" textLength="12.2" clip-path="url(#terminal-866146440-line-3)">
</text><text class="terminal-866146440-r2" x="0" y="117.6" textLength="97.6" clip-path="url(#terminal-866146440-line-4)">&#160;100001&#160;</text><text class="terminal-866146440-r2" x="97.6" y="117.6" textLength="207.4" clip-path="url(#terminal-866146440-line-4)">&#160;preprocess_data&#160;</text><text class="terminal-866146440-r2" x="305" y="117.6" textLength="134.2" clip-path="url(#terminal-866146440-line-4)">&#160;debug&#160;&#160;&#160;&#160;&#160;</text><text class="terminal-866146440-r9" x="451.4" y="117.6" textLength="109.8" clip-path="url(#terminal-866146440-line-4)">COMPLETED</text><text class="terminal-866146440-r2" x="573.4" y="117.6" textLength="122" clip-path="url(#terminal-866146440-line-4)">&#160;00:00:00&#160;</text><text class="terminal-866146440-r2" x="695.4" y="117.6" textLength="85.4" clip-path="url(#terminal-866146440-line-4)">&#160;5&#160;&#160;&#160;&#160;&#160;</text><text class="terminal-866146440-r2" x="780.8" y="117.6" textLength="146.4" clip-path="url(#terminal-866146440-line-4)">&#160;Resources&#160;&#160;</text><text class="terminal-866146440-r1" x="1403" y="117.6" textLength="12.2" clip-path="url(#terminal-866146440-line-4)">
</text><text class="terminal-866146440-r2" x="0" y="142" textLength="97.6" clip-path="url(#terminal-866146440-line-5)">&#160;100002&#160;</text><text class="terminal-866146440-r2" x="97.6" y="142" textLength="207.4" clip-path="url(#terminal-866146440-line-5)">&#160;inference_batch&#160;</text><text class="terminal-866146440-r2" x="305" y="142" textLength="134.2" clip-path="url(#terminal-866146440-line-5)">&#160;bigmem&#160;&#160;&#160;&#160;</text><text class="terminal-866146440-r10" x="451.4" y="142" textLength="85.4" clip-path="url(#terminal-866146440-line-5)">PENDING</text><text class="terminal-866146440-r2" x="573.4" y="142" textLength="122" clip-path="url(#terminal-866146440-line-5)">&#160;00:00:00&#160;</text><text class="terminal-866146440-r2" x="695.4" y="142" textLength="85.4" clip-path="url(#terminal-866146440-line-5)">&#160;5&#160;&#160;&#160;&#160;&#160;</text><text class="terminal-866146440-r2" x="780.8" y="142" textLength="146.4" clip-path="url(#terminal-866146440-line-5)">&#160;Dependency&#160;</text><text class="terminal-866146440-r1" x="1403" y="142" textLength="12.2" clip-path="url(#terminal-866146440-line-5)">
</text><text class="terminal-866146440-r2" x="0" y="166.4" textLength="97.6" clip-path="url(#terminal-866146440-line-6)">&#160;100003&#160;</text><text class="terminal-866146440-r2" x="97.6" y="166.4" textLength="207.4" clip-path="url(#terminal-866146440-line-6)">&#160;preprocess_data&#160;</text><text class="terminal-866146440-r2" x="305" y="166.4" textLength="134.2" clip-path="url(#terminal-866146440-line-6)">&#160;bigmem&#160;&#160;&#160;&#160;</text><text class="terminal-866146440-r9" x="451.4" y="166.4" textLength="85.4" clip-path="url(#terminal-866146440-line-6)">RUNNING</text><text class="terminal-866146440-r2" x="573.4" y="166.4" textLength="122" clip-path="url(#terminal-866146440-line-6)">&#160;01:47:17&#160;</text><text class="terminal-866146440-r2" x="695.4" y="166.4" textLength="85.4" clip-path="url(#terminal-866146440-line-6)">&#160;1&#160;&#160;&#160;&#160;&#160;</text><text class="terminal-866146440-r2" x="780.8" y="166.4" textLength="146.4" clip-path="url(#terminal-866146440-line-6)">&#160;None&#160;&#160;&#160;&#160;&#160;&#160;&#160;</text><text class="terminal-866146440-r1" x="1403" y="166.4" textLength="12.2" clip-path="url(#terminal-866146440-line-6)">
</text><text class="terminal-866146440-r2" x="0" y="190.8" textLength="97.6" clip-path="url(#terminal-866146440-line-7)">&#160;100004&#160;</text><text class="terminal-866146440-r2" x="97.6" y="190.8" textLength="207.4" clip-path="url(#terminal-866146440-line-7)">&#160;run_simulation&#160;&#160;</text><text class="terminal-866146440-r2" x="305" y="190.8" textLength="134.2" clip-path="url(#terminal-866146440-line-7)">&#160;batch&#160;&#160;&#160;&#160;&#160;</text><text class="terminal-866146440-r9" x="451.4" y="190.8" textLength="85.4" clip-path="url(#terminal-866146440-line-7)">RUNNING</text><text class="terminal-866146440-r2" x="573.4" y="190.8" textLength="122" clip-path="url(#terminal-866146440-line-7)">&#160;04:46:28&#160;</text><text class="terminal-866146440-r2" x="695.4" y="190.8" textLength="85.4" clip-path="url(#terminal-866146440-line-7)">&#160;3&#160;&#160;&#160;&#160;&#160;</text><text class="terminal-866146440-r2" x="780.8" y="190.8" textLength="146.4" clip-path="url(#terminal-866146440-line-7)">&#160;None&#160;&#160;&#160;&#160;&#160;&#160;&#160;</text><text class="terminal-866146440-r1" x="1403" y="190.8" textLength="12.2" clip-path="url(#terminal-866146440-line-7)">
</text><text class="terminal-866146440-r2" x="0" y="215.2" textLength="97.6" clip-path="url(#terminal-866146440-line-8)">&#160;100005&#160;</text><text class="terminal-866146440-r2" x="97.6" y="215.2" textLength="207.4" clip-path="url(#terminal-866146440-line-8)">&#160;postprocess&#160;&#160;&#160;&#160;&#160;</text><text class="terminal-866146440-r2" x="305" y="215.2" textLength="134.2" clip-path="url(#terminal-866146440-line-8)">&#160;bigmem&#160;&#160;&#160;&#160;</text><text class="terminal-866146440-r9" x="451.4" y="215.2" textLength="85.4" clip-path="url(#terminal-866146440-line-8)">RUNNING</text><text class="terminal-866146440-r2" x="573.4" y="215.2" textLength="122" clip-path="url(#terminal-866146440-line-8)">&#160;03:10:26&#160;</text><text class="terminal-866146440-r2" x="695.4" y="215.2" textLength="85.4" clip-path="url(#terminal-866146440-line-8)">&#160;5&#160;&#160;&#160;&#160;&#160;</text><text class="terminal-866146440-r2" x="780.8" y="215.2" textLength="146.4" clip-path="url(#terminal-866146440-line-8)">&#160;None&#160;&#160;&#160;&#160;&#160;&#160;&#160;</text><text class="terminal-866146440-r1" x="1403" y="215.2" textLength="12.2" clip-path="url(#terminal-866146440-line-8)">
</text><text class="terminal-866146440-r11" x="0" y="239.6" textLength="97.6" clip-path="url(#terminal-866146440-line-9)">&#160;100006&#160;</text><text class="terminal-866146440-r11" x="97.6" y="239.6" textLength="207.4" clip-path="url(#terminal-866146440-line-9)">&#160;data_augment&#160;&#160;&#160;&#160;</text><text class="terminal-866146440-r11" x="305" y="239.6" textLength="134.2" clip-path="url(#terminal-866146440-line-9)">&#160;batch&#160;&#160;&#160;&#160;&#160;</text><text class="terminal-866146440-r11" x="439.2" y="239.6" textLength="134.2" clip-path="url(#terminal-866146440-line-9)">&#160;PENDING&#160;&#160;&#160;</text><text class="terminal-866146440-r11" x="573.4" y="239.6" textLength="122" clip-path="url(#terminal-866146440-line-9)">&#160;00:00:00&#160;</text><text class="terminal-866146440-r11" x="695.4" y="239.6" textLength="85.4" clip-path="url(#terminal-866146440-line-9)">&#160;4&#160;&#160;&#160;&#160;&#160;</text><text class="terminal-866146440-r11" x="780.8" y="239.6" textLength="146.4" clip-path="url(#terminal-866146440-line-9)">&#160;Priority&#160;&#160;&#160;</text><text class="terminal-866146440-r1" x="1403" y="239.6" textLength="12.2" clip-path="url(#terminal-866146440-line-9)">
</text><text class="terminal-866146440-r2" x="0" y="264" textLength="97.6" clip-path="url(#terminal-866146440-line-10)">&#160;100007&#160;</text><text class="terminal-866146440-r2" x="97.6" y="264" textLength="207.4" clip-path="url(#terminal-866146440-line-10)">&#160;benchmark_v2&#160;&#160;&#160;&#160;</text><text class="terminal-866146440-r2" x="305" y="264" textLength="134.2" clip-path="url(#terminal-866146440-line-10)">&#160;batch&#160;&#160;&#160;&#160;&#160;</text><text class="terminal-866146440-r9" x="451.4" y="264" textLength="85.4" clip-path="url(#terminal-866146440-line-10)">RUNNING</text><text class="terminal-866146440-r2" x="573.4" y="264" textLength="122" clip-path="url(#terminal-866146440-line-10)">&#160;06:54:18&#160;</text><text class="terminal-866146440-r2" x="695.4" y="264" textLength="85.4" clip-path="url(#terminal-866146440-line-10)">&#160;6&#160;&#160;&#160;&#160;&#160;</text><text class="terminal-866146440-r2" x="780.8" y="264" textLength="146.4" clip-path="url(#terminal-866146440-line-10)">&#160;None&#160;&#160;&#160;&#160;&#160;&#160;&#160;</text><text class="terminal-866146440-r1" x="1403" y="264" textLength="12.2" clip-path="url(#terminal-866146440-line-10)">
</text><text class="terminal-866146440-r2" x="0" y="288.4" textLength="97.6" clip-path="url(#terminal-866146440-line-11)">&#160;100008&#160;</text><text class="terminal-866146440-r2" x="97.6" y="288.4" textLength="207.4" clip-path="url(#terminal-866146440-line-11)">&#160;hyperopt_search&#160;</text><text class="terminal-866146440-r2" x="305" y="288.4" textLength="134.2" clip-path="url(#terminal-866146440-line-11)">&#160;batch&#160;&#160;&#160;&#160;&#160;</text><text class="terminal-866146440-r9" x="451.4" y="288.4" textLength="85.4" clip-path="url(#terminal-866146440-line-11)">RUNNING</text><text class="terminal-866146440-r2" x="573.4" y="288.4" textLength="122" clip-path="url(#terminal-866146440-line-11)">&#160;01:22:20&#160;</text><text class="terminal-866146440-r2" x="695.4" y="288.4" textLength="85.4" clip-path="url(#terminal-866146440-line-11)">&#160;3&#160;&#160;&#160;&#160;&#160;</text><text class="terminal-866146440-r2" x="780.8" y="288.4" textLength="146.4" clip-path="url(#terminal-866146440-line-11)">&#160;None&#160;&#160;&#160;&#160;&#160;&#160;&#160;</text><text class="terminal-866146440-r1" x="1403" y="288.4" textLength="12.2" clip-path="url(#terminal-866146440-line-11)">
</text><text class="terminal-866146440-r1" x="1403" y="312.8" textLength="12.2" clip-path="url(#terminal-866146440-line-12)">
</text><text class="terminal-866146440-r1" x="1403" y="337.2" textLength="12.2" clip-path="url(#terminal-866146440-line-13)">
</text><text class="terminal-866146440-r1" x="1403" y="361.6" textLength="12.2" clip-path="url(#terminal-866146440-line-14)">
</text><text class="terminal-866146440-r1" x="1403" y="386" textLength="12.2" clip-path="url(#terminal-866146440-line-15)">
</text><text class="terminal-866146440-r1" x="1403" y="410.4" textLength="12.2" clip-path="url(#terminal-866146440-line-16)">
</text><text class="terminal-866146440-r1" x="1403" y="434.8" textLength="12.2" clip-path="url(#terminal-866146440-line-17)">
</text><text class="terminal-866146440-r1" x="1403" y="459.2" textLength="12.2" clip-path="url(#terminal-866146440-line-18)">
</text><text class="terminal-866146440-r1" x="1403" y="483.6" textLength="12.2" clip-path="url(#terminal-866146440-line-19)">
</text><text class="terminal-866146440-r1" x="1403" y="508" textLength="12.2" clip-path="url(#terminal-866146440-line-20)">
</text><text class="terminal-866146440-r1" x="1403" y="532.4" textLength="12.2" clip-path="url(#terminal-866146440-line-21)">
</text><text class="terminal-866146440-r1" x="1403" y="556.8" textLength="12.2" clip-path="url(#terminal-866146440-line-22)">
</text><text class="terminal-866146440-r1" x="1403" y="581.2" textLength="12.2" clip-path="url(#terminal-866146440-line-23)">
</text><text class="terminal-866146440-r1" x="1403" y="605.6" textLength="12.2" clip-path="url(#terminal-866146440-line-24)">
</text><text class="terminal-866146440-r1" x="1403" y="630" textLength="12.2" clip-path="url(#terminal-866146440-line-25)">
</text><text class="terminal-866146440-r1" x="1403" y="654.4" textLength="12.2" clip-path="url(#terminal-866146440-line-26)">
</text><text class="terminal-866146440-r1" x="1403" y="678.8" textLength="12.2" clip-path="url(#terminal-866146440-line-27)">
</text><text class="terminal-866146440-r1" x="1403" y="703.2" textLength="12.2" clip-path="url(#terminal-866146440-line-28)">
</text><text class="terminal-866146440-r1" x="1403" y="727.6" textLength="12.2" clip-path="url(#terminal-866146440-line-29)">
</text><text class="terminal-866146440-r1" x="1403" y="752" textLength="12.2" clip-path="url(#terminal-866146440-line-30)">
</text><text class="terminal-866146440-r1" x="1403" y="776.4" textLength="12.2" clip-path="url(#terminal-866146440-line-31)">
</text><text class="terminal-866146440-r1" x="1403" y="800.8" textLength="12.2" clip-path="url(#terminal-866146440-line-32)">
</text><text class="terminal-866146440-r1" x="1403" y="825.2" textLength="12.2" clip-path="url(#terminal-866146440-line-33)">
</text><text class="terminal-866146440-r1" x="1403" y="849.6" textLength="12.2" clip-path="url(#terminal-866146440-line-34)">
</text><text class="terminal-866146440-r12" x="24.4" y="874" textLength="158.6" clip-path="url(#terminal-866146440-line-35)">&#160;8&#160;jobs&#160;shown</text><text class="terminal-866146440-r1" x="1403" y="874" textLength="12.2" clip-path="url(#terminal-866146440-line-35)">
</text><text class="terminal-866146440-r13" x="0" y="898.4" textLength="36.6" clip-path="url(#terminal-866146440-line-36)">&#160;k&#160;</text><text class="terminal-866146440-r2" x="36.6" y="898.4" textLength="109.8" clip-path="url(#terminal-866146440-line-36)">Kill&#160;Job&#160;</text><text class="terminal-866146440-r13" x="146.4" y="898.4" textLength="36.6" clip-path="url(#terminal-866146440-line-36)">&#160;h&#160;</text><text class="terminal-866146440-r2" x="183" y="898.4" textLength="109.8" clip-path="url(#terminal-866146440-line-36)">Hold&#160;Job&#160;</text><text class="terminal-866146440-r13" x="292.8" y="898.4" textLength="36.6" clip-path="url(#terminal-866146440-line-36)">&#160;u&#160;</text><text class="terminal-866146440-r2" x="329.4" y="898.4" textLength="146.4" clip-path="url(#terminal-866146440-line-36)">Release&#160;Job&#160;</text><text class="terminal-866146440-r13" x="475.8" y="898.4" textLength="36.6" clip-path="url(#terminal-866146440-line-36)">&#160;r&#160;</text><text class="terminal-866146440-r2" x="512.4" y="898.4" textLength="97.6" clip-path="url(#terminal-866146440-line-36)">Refresh&#160;</text><text class="terminal-866146440-r13" x="610" y="898.4" textLength="36.6" clip-path="url(#terminal-866146440-line-36)">&#160;i&#160;</text><text class="terminal-866146440-r2" x="646.6" y="898.4" textLength="97.6" clip-path="url(#terminal-866146440-line-36)">Inspect&#160;</text><text class="terminal-866146440-r13" x="744.2" y="898.4" textLength="36.6" clip-path="url(#terminal-866146440-line-36)">&#160;q&#160;</text><text class="terminal-866146440-r2" x="780.8" y="898.4" textLength="61" clip-path="url(#terminal-866146440-line-36)">Quit&#160;</text><text class="terminal-866146440-r13" x="841.8" y="898.4" textLength="36.6" clip-path="url(#terminal-866146440-line-36)">&#160;1&#160;</text><text class="terminal-866146440-r2" x="878.4" y="898.4" textLength="97.6" clip-path="url(#terminal-866146440-line-36)">Monitor&#160;</text><text class="terminal-866146440-r13" x="976" y="898.4" textLength="36.6" clip-path="url(#terminal-866146440-line-36)">&#160;2&#160;</text><text class="terminal-866146440-r2" x="1012.6" y="898.4" textLength="109.8" clip-path="url(#terminal-866146440-line-36)">Composer&#160;</text><text class="terminal-866146440-r13" x="1122.4" y="898.4" textLength="36.6" clip-path="url(#terminal-866146440-line-36)">&#160;3&#160;</text><text class="terminal-866146440-r2" x="1159" y="898.4" textLength="97.6" clip-path="url(#terminal-866146440-line-36)">Hardware</text><text class="terminal-866146440-r14" x="1256.6" y="898.4" textLength="12.2" clip-path="url(#terminal-866146440-line-36)">▏</text><text class="terminal-866146440-r13" x="1268.8" y="898.4" textLength="24.4" clip-path="url(#terminal-866146440-line-36)">^p</text><text class="terminal-866146440-r2" x="1293.2" y="898.4" textLength="97.6" clip-path="url(#terminal-866146440-line-36)">&#160;palette</text>
    </g>
    </g>
</svg>
